<?xml version="1.0" encoding="UTF-8" standalone="no"?>
<svg
   xmlns:dc="http://purl.org/dc/elements/1.1/"
   xmlns:cc="http://creativecommons.org/ns#"
   xmlns:rdf="http://www.w3.org/1999/02/22-rdf-syntax-ns#"
   xmlns:svg="http://www.w3.org/2000/svg"
   xmlns="http://www.w3.org/2000/svg"
   viewBox="0 0 793.70081 566.92908"
   id="svg66"
   height="566.92908"
   width="793.70081"
   version="1.1">
  <metadata
     id="metadata72">
    <rdf:RDF>
      <cc:Work
         rdf:about="">
        <dc:format>image/svg+xml</dc:format>
        <dc:type
           rdf:resource="http://purl.org/dc/dcmitype/StillImage" />
      </cc:Work>
    </rdf:RDF>
  </metadata>
  <defs
     id="defs70" />
  <g
     id="Layer1000">
    <g
       id="Layer1001">
      <path
         id="path2"
         style="fill:#000;fill-rule:evenodd"
         d="m 230.0237,128.9016 c 0.144,1.4051 0.2621,3.0554 2.2226,3.1305 1.9856,0.0759 2.7117,-1.3327 2.7768,-3.1114 0.0654,-1.7813 -0.6634,-3.3416 -2.5022,-3.4324 -2.0192,-0.0997 -2.4364,1.6189 -2.4972,3.4133 z m -94.0944,108.4052 c 5.2891,-5.6258 4.746,-15.1046 -0.7137,-18.184 -4.3984,6.1565 -0.0964,11.8636 0.7137,18.184 z m 83.0203,-71.1601 c -1.3771,1.9707 -1.1066,4.1039 -0.808,6.2165 0.5881,4.1702 2.709,7.6328 5.024,11.0474 5.3321,7.8635 11.7065,15.1109 14.6476,24.4149 0.0725,0.2275 0.5056,0.3409 0.9339,0.6093 3.9769,-4.6462 6.3811,-9.746 5.8374,-15.9654 -1.6154,3.8833 -2.3653,8.1381 -5.588,11.9531 -2.011,-6.8375 -6.2228,-11.8937 -10.5002,-16.8294 -5.3704,-6.1976 -9.0636,-13.0154 -9.5467,-21.4464 z m 91.6434,84.3406 c -3.4632,-3.7494 -6.8164,-8.1614 -12.4939,-3.1892 0.7472,0.7807 1.8573,0.7691 2.9241,0.7234 2.5691,-0.1092 3.5786,1.2376 3.9864,3.6359 0.9947,5.8395 -0.7861,10.011 -5.6353,12.5787 -0.6763,-0.6796 -0.3599,-1.5163 -0.1775,-2.2021 0.6277,-2.3683 -0.005,-3.6853 -2.6196,-3.985 -1.9448,-0.2227 -3.1183,-1.5376 -4.0239,-3.2987 -1.6914,-3.2902 -5.699,-3.8469 -7.7038,-0.7698 -2.4926,3.8245 -5.2438,4.7905 -9.0931,2.2577 -1.241,2.1188 0.3977,3.6126 0.612,5.2951 -3.1489,0.0819 -4.5962,-1.6066 -5.138,-5.9844 -0.6264,-5.0649 1.7173,-9.0842 5.7542,-9.8684 -2.0581,-3.2725 -5.9304,-2.903 -7.8915,0.7521 -0.8265,1.5397 -0.8682,3.2802 -1.2738,4.9277 -0.2029,0.8224 0.1919,1.9762 -1.0131,2.2829 -1.1509,0.2916 -1.9202,-0.4694 -2.6271,-1.2425 -2.1721,-2.3779 -3.8075,-5.0869 -5.0041,-8.0727 -0.3771,-0.9404 -0.819,-1.8551 -1.2554,-2.8354 -1.2952,1.5383 -1.2952,1.5383 -1.6162,7.1183 -1.0404,0.6579 -1.6565,-0.0239 -2.2972,-0.7103 -2.0437,-2.1866 -3.7029,-4.6292 -4.6736,-7.466 -1.0498,-3.0684 -3.013,-5.244 -5.8266,-6.8191 -2.4774,-1.3873 -4.7876,-3.0717 -7.2609,-4.4687 -3.6505,-2.0621 -7.061,-4.1837 -5.1251,-9.679 -2.5212,0.5389 -2.9462,1.5881 -2.5534,3.2889 0.584,2.5274 1.8654,4.6087 3.7529,6.3539 2.114,1.9564 4.5601,3.3499 7.2037,4.4708 3.7669,1.597 3.9083,2.7876 0.6277,5.3394 -2.2434,1.746 -4.5452,3.4243 -6.8883,5.0343 -6.9378,4.7665 -13.9993,9.3409 -21.2454,13.628 -1.2636,0.748 -2.5123,1.5211 -3.9064,2.3669 0.9774,1.8735 2.7439,2.5218 4.1577,3.5497 1.1026,0.802 2.2775,1.5035 3.4195,2.2507 10.5923,6.9251 13.1656,13.0679 10.7557,25.6336 -0.9003,4.6935 -2.1061,9.3125 -3.5091,13.8739 -0.7977,2.5936 -0.3318,4.5595 1.8602,6.3109 4.9549,3.959 8.9815,9.0725 14.9264,11.8007 3.7391,1.7151 5.1455,0.985 5.4181,-3.1476 0.1495,-2.2672 -0.0376,-4.556 0.0751,-6.8273 0.2213,-4.483 2.1729,-6.3873 6.6265,-6.4891 4.4557,-0.1011 8.5172,0.7663 11.6867,5.3129 -2.5807,-0.1851 -4.0528,0.565 -4.7276,2.6306 -0.3183,0.9747 -1.3122,1.5463 -2.2256,2.0348 -3.4542,1.8462 -3.457,1.8408 -3.06,6.1162 1.4876,-0.1367 1.4876,-1.5083 1.9999,-2.4133 1.7016,-3.0095 3.7672,-3.3697 6.3008,-1.039 1.472,1.3546 2.2951,3.0603 2.7383,5.0043 0.8765,3.8491 1.6142,7.6879 0.3956,12.4919 -1.6244,-3.6142 -4.1456,-5.035 -6.8827,-6.1689 -0.6037,-0.25 -1.2214,-0.8169 -1.901,-0.3367 -1.153,0.8155 -3.2473,1.0901 -3.1735,2.6544 0.084,1.7651 2.0028,0.765 3.1019,1.0144 0.545,0.1236 1.0608,0.1216 1.5225,0.5813 4.1271,4.1101 1.537,13.9271 -4.1169,15.5309 -0.5021,0.1421 -0.8702,-0.1059 -1.2342,-0.4194 -0.2473,-0.8831 0.4556,-1.4522 0.7424,-2.1612 1.0444,-2.5785 0.5677,-3.6421 -2.1394,-3.9878 -2.1167,-0.2699 -3.4384,-1.2103 -4.569,-3.0335 -2.0375,-3.2856 -5.9277,-3.3464 -7.7958,-0.3272 -2.3752,3.8375 -2.3669,3.815 -6.6626,2.2439 -0.705,-0.2581 -1.3717,-0.8347 -2.2986,-0.5656 -1.5937,1.6093 0.5457,3.4673 -0.2561,5.1327 -3.3233,-1.6573 -5.0481,-6.0712 -3.7734,-9.7065 0.224,-0.638 0.5601,-1.2452 0.903,-1.8313 0.4494,-0.7691 0.537,-1.4863 -0.114,-2.1777 -0.4283,-0.4556 -0.9447,-0.6208 -1.5343,-0.366 -0.7929,0.3422 -0.7151,1.0777 -0.7185,1.7459 -0.006,1.1599 -0.082,2.287 -1.0423,3.2255 -1.3792,-0.1313 -1.4071,-1.5111 -1.9837,-2.3704 -0.5648,-0.8421 -1.0115,-1.763 -1.5779,-2.7718 -1.1217,0.2308 -2.295,1.7671 -3.3478,-0.1059 -0.7423,-1.3211 -1.295,-2.7528 -3.554,-1.3217 -1.1339,0.7192 -1.599,-1.8456 -2.7268,-2.6441 -1.5409,0.073 -2.2451,1.8148 -4.0888,2.0756 0.5321,-3.7348 -1.7903,-6.3108 -3.5738,-9.1058 -1.0082,-1.58 -2.0594,-3.3027 -1.2192,-5.0916 2.1372,-4.5548 1.4008,-9.136 0.4664,-13.712 -1.9173,-9.3841 -5.8723,-17.8876 -11.4638,-25.6452 -0.3123,-0.4329 -0.6148,-0.8729 -0.9223,-1.3108 -0.2308,0.1558 -0.4623,0.3101 -0.6933,0.4652 1.6127,3.6981 3.2521,7.3847 4.8327,11.0964 2.0137,4.7289 3.6661,9.5405 3.5786,14.7967 -0.0798,4.7938 -1.7487,8.8704 -5.1571,12.2311 -2.9495,2.9085 -6.2918,5.2986 -10.1832,6.7084 -6.9442,2.515 -14.0125,4.6749 -21.2777,6.0574 -5.0335,0.9571 -5.7631,2.1045 -3.2725,6.4865 2.752,4.8435 5.6851,9.5841 8.5459,14.3657 0.1714,0.2867 0.3962,0.5415 0.7261,0.9869 1.8846,-1.6865 1.9064,-3.6367 1.6584,-5.6613 -1.0355,-8.4461 3.9469,-12.3669 12.0712,-9.4946 2.8231,0.9987 4.1785,2.0375 5.8129,4.5076 -1.1788,0.9228 -2.3545,-0.2931 -3.69,0.0492 -0.3256,2.7384 -1.6495,4.75 -4.713,5.2124 -1.0882,0.164 -1.2801,1.063 -1.3825,2.0561 -0.1737,1.6784 -0.4988,3.3408 -0.813,5.3497 1.6053,-1.0655 2.3041,-2.5963 3.3177,-3.834 1.9549,-2.3893 3.7616,-2.586 6.0985,-0.6099 1.045,0.8831 1.9837,1.8838 2.5677,3.1536 0.9753,2.121 1.3354,11.0686 0.4904,13.9709 -1.7132,-1.6243 -3.2788,-3.2554 -4.998,-4.7036 -2.7972,-2.3552 -4.2645,-2.1818 -7.0159,0.6721 1.4762,1.4475 4.0226,1.0252 5.1969,2.91 1.084,1.7397 1.0834,3.6967 0.9461,5.6283 -0.2726,3.8361 -2.2809,6.5481 -5.7674,7.9933 -0.157,-0.1535 -0.4718,-0.3605 -0.4418,-0.4467 1.1782,-3.3735 -0.1994,-5.097 -3.4967,-5.9366 -1.3196,-0.3359 -1.9713,-1.7964 -2.836,-2.8552 -3.0944,-3.7883 -5.5288,-3.7178 -8.1695,0.3613 -1.2971,2.0035 -2.6571,3.2276 -5.2562,2.7296 -3.8417,-0.7362 -3.8615,-0.6373 -4.1893,3.1824 -4.8867,-1.5914 -5.3723,-7.3299 -1.1265,-13.7734 -1.4474,-0.825 -4.6455,1.9537 -4.2807,-2.0505 -1.4433,-0.5075 -2.5725,0.8251 -3.9441,0.1106 0.0731,-1.8341 2.0574,-2.2875 2.6749,-3.7138 0.5969,-1.3792 1.2398,-2.6852 0.5061,-4.3984 -1.8805,0.3226 -3.2506,2.7474 -5.9303,1.2898 2.5061,-3.8759 1.2998,-7.8076 -0.183,-11.9975 -1.0971,0.7507 -1.9994,1.3682 -2.8668,1.9624 -0.2884,-0.1781 -0.6047,-0.2649 -0.6286,-0.4037 -1.209,-6.8927 -0.3483,-13.5957 2.4556,-19.9373 1.2584,-2.8451 4.369,-3.9687 7.0596,-5.0889 6.1947,-2.5814 10.3691,-7.1839 13.8493,-12.6846 0.9207,-1.4549 0.9145,-2.3361 -0.4345,-3.4127 -1.4195,-1.1311 -2.6701,-2.472 -4.0117,-3.7029 -3.5773,-3.2808 -6.3771,-7.0799 -7.6647,-11.8485 -1.6468,-0.1503 -2.733,0.8066 -3.968,1.2398 -5.4843,1.9215 -10.4932,0.0848 -13.4715,-4.8614 -4.6809,-7.7747 -5.7124,-16.0071 -2.9098,-24.5932 2.3545,-7.2134 2.6647,-14.4095 1.33,-21.8658 -1.0971,-6.1279 0.1754,-11.7932 5.1845,-16.1136 0.4194,-0.3607 0.7137,-0.8661 1.1352,-1.3908 -1.4856,-2.4023 -3.5534,-4.5498 -3.1729,-7.692 0.1367,-1.1312 0.009,-2.5471 1.3184,-2.8606 1.6311,-0.3902 1.5416,1.3381 1.9835,2.2507 0.4864,1.0012 0.6682,2.1556 1.5664,2.89 1.6317,-0.5301 1.0683,-2.1463 1.8217,-3.4386 1.1571,1.6598 0.7425,3.149 0.4064,4.6052 -0.3005,1.3006 -0.2992,2.4645 0.9133,3.3525 3.8307,2.8062 6.7644,6.3054 8.0417,11.4442 2.8984,-2.7855 2.6606,-5.6941 2.0383,-8.5656 -0.547,-2.5268 -2.2075,-4.4106 -4.1113,-6.1292 -4.6197,-4.1701 -6.0138,-9.4585 -5.151,-15.4831 0.1324,-0.925 0.2889,-1.8021 1.1761,-2.3588 1.2222,0.7344 0.8752,1.9857 0.9482,3.0581 0.2275,3.3349 1.7124,6.0009 4.6757,7.4394 3.9139,1.9016 7.2302,4.2541 8.6994,9.1354 2.065,-2.8738 2.6182,-5.5985 3.0178,-8.3683 0.6559,-4.5398 0.0957,-9.0863 0.039,-13.6299 -0.0136,-1.0617 -0.3573,-2.0186 -0.8791,-2.9065 -1.7486,-2.9782 -3.0903,-3.0233 -5.1067,-0.2186 -0.3878,0.5396 -0.8339,1.0368 -1.2704,1.5751 -1.9994,-2.3853 -2.0712,-4.8621 -0.2261,-7.0199 4.026,-4.709 6.0889,0.578 8.8909,1.9467 0.9186,-0.8456 0.6148,-1.8216 0.5613,-2.6401 -0.554,-8.5048 -0.8026,-17.0486 -2.7007,-25.406 -0.9406,-4.1388 -2.6668,-7.9728 -4.964,-11.533 -0.9801,-1.5184 -1.9781,-3.2732 -4.265,-2.5622 -1.8061,0.5622 -3.1216,3.5801 -2.7003,5.7392 0.2556,1.3101 1.2133,2.4653 0.8601,4.1155 -2.3191,-0.0123 -2.6306,-2.4358 -4.2207,-3.6742 -1.2595,3.7889 1.3566,6.6224 1.8894,9.7549 -1.9796,0.8339 -2.6695,-1.4228 -4.2473,-1.2514 -1.1928,0.8601 -0.7591,2.2385 -0.9242,3.4181 -0.7939,5.6598 -3.8594,9.2576 -9.1355,10.6457 -4.7363,1.2458 -10.1996,-0.7439 -13.2897,-4.8983 -0.5342,-0.7172 -1.0301,-1.537 -1.2665,-2.3861 -0.427,-1.5327 -0.2335,-2.5996 1.9004,-2.5109 4.5136,0.1886 5.1538,-0.3081 6.9324,-4.3396 1.67,-3.7861 2.5191,-7.7419 2.8239,-11.8758 0.6283,-8.5089 5.6804,-15.1211 13.0951,-17.3637 4.6879,-1.4187 8.9742,-0.6426 12.8198,2.4455 3.7734,3.0293 5.9981,7.0451 7.5357,11.5438 5.0368,14.7365 6.593,29.9186 5.8642,45.3949 -0.3532,7.4966 -0.8526,14.9653 -2.287,22.3717 -2.1912,11.3152 -7.4592,20.8979 -15.5487,28.993 -3.7842,3.787 -7.5561,7.5658 -10.615,11.9994 -2.1326,3.0916 -3.0149,6.5132 -3.3511,10.3383 2.3772,0.7787 6.369,-2.8717 6.8676,2.8538 -2.1865,-0.547 -4.1353,-0.6153 -5.2002,1.6887 -0.8901,1.9261 -1.5233,3.7972 -0.3319,5.8374 1.366,2.3423 3.1114,2.6155 4.8532,0.5096 1.1502,-1.3914 2.2219,-2.933 2.9447,-4.5765 4.78,-10.8758 13.1573,-18.3815 22.8697,-24.6465 4.6873,-3.0233 9.449,-5.9406 13.3453,-10.0023 5.3395,-5.5662 10.2035,-11.4133 10.5329,-19.6579 0.0649,-1.6265 1.1174,-1.6791 2.3026,-1.828 5.0432,-0.6332 9.7857,-2.0424 13.701,-5.5048 0.9365,-0.8286 1.9378,-1.5922 2.3458,-3.1025 -4.6668,3.2165 -9.4914,5.9222 -15.3753,5.2643 -1.0007,-1.5854 0.1133,-2.4439 0.9712,-3.2752 6.8199,-6.6053 9.0193,-14.5938 7.9641,-23.9424 -0.8772,-7.7693 -1.7733,-15.6353 0.3121,-23.4121 0.077,-0.291 -0.1019,-0.6504 -0.1919,-1.1476 -1.494,0.7644 -1.617,2.1012 -1.8526,3.4072 -0.9583,5.3054 -0.403,10.6729 -0.6837,16.0063 -0.2151,4.0861 -0.3394,8.177 -0.4789,12.2666 -0.1672,4.9167 -2.1455,9.0398 -5.6128,12.4263 -4.8143,4.7024 -11.0068,6.4606 -17.1661,8.1443 -1.0903,-1.4016 -0.6039,-2.4555 0.0403,-3.3983 5.1243,-7.4974 6.1203,-16.0965 6.2438,-24.7832 0.2152,-15.0813 3.5897,-29.0509 13.1314,-41.1029 0.2091,-0.2637 0.442,-0.5102 0.0383,-1.0663 -6.2289,4.5328 -9.6778,10.856 -11.7556,18.0502 -1.9653,6.8054 -1.981,13.9461 -3.4332,20.8471 -0.705,3.3505 -1.7132,6.5965 -3.0144,9.7524 -0.4637,1.1242 -0.8484,2.4002 -2.4439,2.7526 -0.188,-0.3722 -0.578,-0.7739 -0.5466,-1.1385 0.6101,-7.1369 -1.0082,-14.0317 -2.2875,-20.9506 -2.2083,-11.9442 2.3401,-21.8377 9.1982,-31.0686 3.0211,-4.0658 6.6067,-7.4558 11.3868,-9.4606 -4.0896,0.067 -7.1737,2.11 -9.6436,5.1073 -2.6033,3.1586 -4.9981,6.4892 -7.5055,9.7276 -0.6715,0.8668 -1.4222,1.6729 -2.2393,2.6265 -0.8367,-1.5205 -0.3954,-2.6471 0.0951,-3.7836 2.9774,-6.8997 6.2657,-13.6408 10.4755,-19.8849 6.8656,-10.1824 19.5679,-13.6483 30.7203,-8.468 3.3068,1.5362 6.8075,2.5369 10.2918,3.5726 1.0534,0.3135 2.231,0.4426 2.5958,1.7473 -0.9877,1.3606 -2.3431,0.9193 -3.5199,0.9358 -5.6899,0.0792 -11.3841,0.198 -17.072,0.071 -2.1367,-0.0478 -3.0566,0.7192 -3.5308,2.6974 -0.9767,4.0718 0.2924,7.3675 3.1462,10.2214 1.9605,1.9604 4.5344,2.9857 7.0623,4.5684 -0.9938,2.2801 -2.1086,4.4871 -2.92,6.7999 -0.7658,2.1804 -1.6765,4.4236 -0.9161,7.1655 2.5704,-0.5595 4.1723,-1.9509 5.4494,-3.8682 -0.4875,-1.2425 -2.2888,-0.8436 -2.4883,-2.1586 -0.1796,-1.1817 0.4775,-2.181 0.9569,-3.2043 0.8621,-1.8429 1.7152,-3.6899 2.6395,-5.679 -1.3286,-1.2288 -3.11,-1.345 -4.5937,-2.056 -4.1094,-1.9707 -6.0814,-5.235 -6.4482,-9.6975 -0.1886,-2.291 0.5513,-3.4189 2.9617,-3.3608 4.3212,0.1038 8.6451,0.1141 12.9681,0.1702 7.3813,0.0949 14.7646,0.6337 22.1282,-0.5226 3.7746,-0.5929 6.901,0.7799 9.479,4.0383 -1.8916,1.1114 -1.6662,2.1823 -0.1573,3.5794 1.9284,1.7848 1.9797,4.2431 1.5493,6.6878 -0.4119,2.3409 -0.9624,4.6422 -2.1811,6.7603 -1.5648,-0.343 -2.192,-1.6736 -3.1865,-2.5245 -2.8073,-2.4018 -4.9837,-2.1367 -7.108,0.9282 -2.7173,3.9207 -2.5539,9.6108 0.3846,13.4332 2.7897,3.6278 5.7747,3.2365 7.5984,-0.9904 0.2173,-0.5034 0.2432,-1.1285 0.8621,-1.416 1.5513,0.0635 2.1783,1.0074 2.1906,2.4523 0.0382,4.4371 -0.3777,8.821 -1.6632,13.8171 -1.787,-2.4836 -4.5609,-1.3805 -6.4586,-2.8792 -0.4781,-0.3764 -0.918,-0.6755 -1.5,-0.2651 -1.4971,1.0574 -2.5355,0.2221 -3.5397,-0.8312 -0.9337,-0.9782 -1.7862,-2.2207 -3.4035,-1.0382 -1.5841,1.1585 -1.6586,2.7055 -0.9018,4.2507 1.1142,2.2725 2.582,4.4549 4.9017,5.5382 6.0097,2.8068 10.6552,6.8718 13.2372,13.0925 0.0581,0.1399 0.3511,0.1824 0.5608,0.2834 0.5566,-1.2787 -0.3319,-2.1788 -0.8272,-3.1448 -1.7397,-3.3995 -1.496,-3.858 2.1578,-4.0745 3.0643,-0.1824 6.13,-0.3797 9.186,-0.6626 4.1579,-0.3853 7.9673,-1.8886 11.4475,-4.1099 3.6572,-2.3342 4.4598,-6.233 2.4018,-9.7673 -0.9372,-1.6108 -3.3792,-2.6728 -1.938,-5.278 1.1981,-2.1648 3.4045,-2.0048 5.2261,-2.5931 0.6456,-0.845 0.0289,-1.5846 -0.0286,-2.3401 -0.2589,-3.4038 1.5889,-5.4932 5.0432,-6.0377 5.2151,-0.8217 9.0322,2.0588 13.5453,4.6941 -5.8493,2.3429 -10.7688,5.0062 -9.4955,12.2009 1.2944,-0.5109 1.4344,-1.905 2.0405,-2.9351 1.6911,-2.8731 3.0887,-3.4154 6.2022,-2.274 4.5055,1.6511 7.4898,8.1149 5.4126,11.7605 -1.5895,-0.2986 -1.8867,-2.2767 -3.5151,-2.6674 -1.6373,2.0621 -3.7766,3.3019 -6.3662,4.175 -4.1728,1.4057 -5.444,4.89 -3.5697,8.8123 1.2241,2.5607 0.8312,4.8054 -0.882,6.9877 -0.909,1.1577 -2.6925,2.121 -1.3871,4.0472 1.1871,1.7521 2.668,0.4256 4.0321,0.3361 0.2097,-0.0137 0.4269,0.0798 0.6415,0.1236 -0.6682,2.623 -1.8478,3.4181 -4.7214,3.1886 -5.2332,-0.418 -8.2421,-4.2944 -8.8056,-11.5343 -2.7028,1.0185 -3.4372,3.3108 -3.5607,5.6578 -0.1462,2.7754 1.1522,5.0029 3.5894,6.5548 1.1496,0.7323 3.371,0.5785 3.1387,2.5669 -0.2116,1.8053 -2.2335,2.0882 -3.6086,2.7684 -2.5205,1.2474 -5.3102,1.0404 -8.2152,1.1298 0.3449,1.5014 1.5477,1.5533 2.5361,1.8041 2.2453,0.5696 2.0089,1.7713 0.8928,3.2343 -2.2834,2.9933 -6.9728,3.3197 -10.4271,0.7644 -1.4814,-1.0963 -2.655,-2.8635 -5.7056,-2.4631 9.4844,4.8689 13.0119,13.8478 18.0775,21.5481 3.2514,4.9427 6.9221,9.2603 12.5172,11.4954 1.5341,-0.8191 1.3176,-2.1497 1.2876,-3.3525 -0.067,-2.7268 -0.39,-5.4599 -0.2816,-8.1772 0.1935,-4.873 4.0515,-7.899 8.8561,-7.0213 4.1763,0.7623 7.9352,2.3334 10.8601,6.6102 -1.9213,-0.4618 -3.1954,-0.7685 -4.6722,-1.1236 -0.6721,3.1017 -1.4897,5.8423 -5.3491,6.0717 -1.4106,0.0841 -1.4563,1.0069 -0.7699,5.1722 1.3055,-0.8026 1.617,-2.2192 2.4134,-3.2411 1.8607,-2.388 4.0193,-2.6223 6.0547,-0.4911 3.2794,3.4338 5.2105,12.7147 2.5417,17.0589 z" />
      <path
         id="path4"
         style="fill:#000;fill-rule:evenodd"
         d="m 561.07,128.8489 c -0.1681,-1.7754 -0.7726,-3.4419 -2.8122,-3.5321 -1.9489,-0.0868 -2.6442,1.5641 -2.7412,3.1919 -0.1073,1.8094 0.5396,3.4816 2.6926,3.5151 1.9161,0.0294 2.5895,-1.4563 2.8608,-3.1749 z m 92.9821,107.8607 c 1.1693,-3.2281 2.2856,-6.1763 3.3013,-9.1585 0.8462,-2.4863 0.444,-4.8594 -0.7706,-7.1777 -0.9774,-1.8654 -1.8967,-1.9535 -3.2275,-0.3286 -3.9883,4.8697 -3.8402,11.4065 0.6968,16.6648 z m -82.7887,-70.5331 c -0.2964,1.3095 -0.5512,2.1764 -0.6825,3.0608 -0.9726,6.5692 -3.7596,12.3391 -7.7036,17.6028 -4.0437,5.3983 -9.1893,10.0145 -11.5378,16.9758 -3.6878,-2.4039 -3.7786,-6.0685 -4.7766,-9.2836 -0.1039,5.4734 1.5239,10.2267 5.4618,14.0787 1.3061,-0.6339 1.5971,-1.5362 1.8095,-2.3901 1.2398,-4.9748 3.8975,-9.0733 7.1961,-12.9633 4.265,-5.0288 8.1244,-10.438 10.0821,-16.8472 0.9625,-3.1538 2.0259,-6.4789 0.151,-10.2339 z m 30.8944,108.7741 c -6.1666,8.6299 -10.4932,17.7605 -12.6401,27.881 -1.0568,4.9835 -2.4966,9.9405 -0.2002,15.0486 0.7118,1.5813 0.1681,3.3354 -1.3743,4.5827 -1.4672,1.1866 -2.2494,2.7944 -2.5902,4.6633 -0.7329,4.0234 -0.8204,4.0404 -4.2274,1.6141 -1.1079,0.134 -1.2973,1.1708 -1.8089,1.8737 -0.4056,0.558 -0.9296,1.4297 -1.5335,0.9412 -1.8722,-1.5143 -2.2356,0.1449 -2.9344,1.1933 -0.9741,1.4606 -2.0245,1.8559 -2.9816,-0.0143 -2.0813,1.4871 -1.4863,4.4317 -3.8232,5.3369 -1.4657,-0.8525 -1.0642,-2.3477 -1.336,-3.6148 -0.2343,-1.0922 -0.7431,-2.0069 -2.1161,-1.4024 -1.222,0.5377 -0.8013,1.3738 -0.3286,2.2201 1.7308,3.099 1.9604,6.2644 0.2302,9.4296 -0.6428,1.1749 -1.3593,2.3847 -2.9741,2.5282 -1.5765,-1.2255 0.0192,-3.1122 -1.002,-4.5028 -0.9693,-0.4318 -1.9072,0.2021 -2.8725,0.323 -2.4733,0.3115 -4.362,-0.3435 -5.9003,-2.4726 -2.7486,-3.8048 -5.4549,-3.5986 -7.7726,0.5355 -0.8184,1.4609 -1.6135,2.5867 -3.4072,2.9788 -3.7759,0.8252 -3.8613,1.1503 -2.1948,4.7583 0.2214,0.4802 0.6969,0.9043 0.4032,1.5676 -0.9488,0.6067 -1.7105,-0.0286 -2.4666,-0.4624 -4.0507,-2.3231 -6.4795,-8.2651 -5.2208,-12.7105 0.9496,-3.3498 1.5992,-3.7583 5.0562,-3.1095 0.6885,0.1292 1.3401,0.2405 1.8832,-0.3421 -1.763,-3.2678 -3.1278,-3.6059 -6.3,-2.0486 -2.2705,1.1141 -5.2637,1.0855 -5.8642,4.4263 -1.2109,-0.6912 -0.952,-1.653 -0.862,-2.4693 0.3259,-2.9371 0.6667,-5.8764 1.1319,-8.7945 0.2303,-1.4495 0.7029,-2.849 1.6168,-4.0841 2.7822,-3.7603 4.386,-3.7943 7.255,-0.1031 0.6091,0.7848 1.282,1.5212 1.9918,2.3567 1.351,-3.4421 1.1413,-4.4612 -1.7296,-5.7788 -2.2999,-1.0555 -3.0963,-3.1968 -4.1128,-4.9168 -1.4337,-0.4474 -2.3859,0.6626 -3.5573,0.4214 2.1037,-5.5191 11.9072,-7.9187 16.0651,-3.961 1.4958,1.4241 1.9849,3.2527 2.0019,5.2596 0.0227,2.6175 -0.0184,5.2392 0.1313,7.8504 0.1638,2.8649 1.2547,3.5356 4.0245,2.2985 3.8793,-1.7321 7.449,-4.0253 9.9681,-7.5279 1.638,-2.2775 3.5458,-4.1442 6.0206,-5.4113 2.1934,-1.123 2.6844,-2.5718 1.8429,-5.0022 -3.0854,-8.9052 -4.4822,-18.0556 -3.5021,-27.5167 0.414,-4.0015 2.0137,-7.1007 5.4558,-9.322 4.3728,-2.8217 8.634,-5.8149 13.3627,-9.0179 -2.6412,-1.6884 -4.8647,-3.1879 -7.1618,-4.5655 -8.3924,-5.0343 -16.607,-10.3342 -24.4254,-16.2265 -1.2971,-0.9774 -3.2268,-1.5805 -2.959,-3.7759 0.2583,-2.1142 2.2391,-2.0615 3.621,-2.5779 3.2808,-1.2247 6.1182,-3.0362 8.3048,-5.7623 2.1627,-2.6976 2.177,-4.8035 -0.3771,-8.4564 1.3348,6.0684 -2.2172,8.2821 -5.9529,10.4023 -1.4824,0.841 -2.8403,1.9105 -4.3519,2.6874 -4.3006,2.2102 -7.5902,5.0416 -8.7502,10.1483 -0.6782,2.9871 -3.0662,5.1462 -6.1571,6.6975 -1.0779,-2.4776 0.1278,-5.145 -1.7056,-7.2952 -2.5915,4.4514 -3.5417,10.2248 -9.4693,12.0644 -0.9714,-2.0629 -0.5226,-4.1074 -1.19,-5.9168 -0.7718,-2.0929 -1.89,-3.9564 -4.2863,-4.4468 -2.1367,-0.4372 -3.7624,0.3805 -4.8033,2.3498 4.4557,1.0867 6.056,3.9624 5.8211,10.3875 -0.1523,4.1618 -0.9125,5.2364 -4.2111,5.7861 -0.7077,-1.9659 1.8102,-3.8005 0.3183,-5.7685 -0.2097,-0.0662 -0.4926,-0.254 -0.6183,-0.1781 -3.6926,2.2164 -6.4487,1.7602 -9.129,-2.0186 -2.0999,-2.9603 -4.3438,-2.5382 -6.5773,0.3751 -1.3506,1.7635 -2.8525,3.1222 -5.1886,3.5491 -3.7391,0.6832 -3.7488,0.8477 -2.1921,4.4079 0.1722,0.3962 0.4748,0.7848 -0.0356,1.4687 -3.5491,-1.1941 -5.1073,-3.9974 -5.8347,-7.4279 -0.2097,-0.9863 -0.1522,-2.0416 -0.1305,-3.0628 0.1045,-4.7494 0.9646,-5.5855 5.6947,-5.6722 0.2951,-0.005 0.5869,-0.2268 0.9147,-0.3619 -4.7603,-4.1312 -4.9119,-3.9415 -12.2856,2.8128 -1.0111,-0.4837 -0.9454,-1.4522 -0.9966,-2.3286 -0.2931,-5.0383 0.8688,-9.7229 3.6557,-13.936 2.0288,-3.0684 3.5308,-3.0541 5.6858,-0.1578 0.869,1.1681 1.4263,2.6004 2.7693,3.4024 1.446,-3.6497 1.1087,-4.4257 -2.4672,-5.5534 -1.0363,-0.3265 -1.7392,-0.8647 -2.201,-1.9208 -1.6276,-3.7248 -1.6667,-3.7077 -5.2664,-2.7528 2.1783,-6.3497 12.4811,-9.3184 17.3371,-4.3012 2.284,2.3607 2.3607,5.0568 1.4111,7.9236 -0.5834,1.7581 -0.9944,3.4897 -0.5239,5.3381 0.6823,2.6776 2.1299,3.3848 4.4679,2.0145 2.6906,-1.5765 4.8254,-3.7891 6.5938,-6.3382 3.8914,-5.6053 7.7698,-11.2189 11.6094,-16.8588 1.4735,-2.1626 2.8825,-4.3636 4.77,-6.3084 -2.1334,0.7147 -4.035,2.0453 -6.4633,1.7651 -2.6482,-0.3053 -4.3765,-1.6502 -5.6252,-3.9863 1.2419,-1.6025 3.8977,-0.6456 4.8581,-2.6974 -1.4195,-1.4536 -3.1708,-0.9107 -4.8095,-0.8586 -2.1967,0.0695 -4.3204,-0.0356 -6.1627,-1.4638 -2.2405,-1.7372 -2.1592,-2.9181 0.3231,-4.1231 5.3594,-2.6011 6.0001,-8.9434 1.0437,-13.251 0.3894,5.5077 -1.1312,9.9232 -6.5792,11.7497 -2.7031,0.9057 -5.1265,-0.001 -6.7222,-2.6177 0.8115,-0.8053 1.4863,0.0765 2.2029,0.0459 2.1777,-0.0929 3.2816,-1.6599 2.4051,-3.7104 -0.3962,-0.9263 -1.0942,-1.7214 -1.6374,-2.5875 -1.1214,-1.791 -1.2411,-3.5021 -0.0354,-5.4066 1.8695,-2.9514 0.3245,-7.5336 -2.8784,-8.7002 -1.4803,-0.5396 -3.1736,-0.5239 -4.4906,-1.5021 -1.1714,-0.8688 -2.2472,-1.8676 -3.4529,-2.8839 -0.9837,0.7507 -1.8681,1.4263 -2.7718,2.1169 -2.3069,-5.104 2.2002,-12.1334 7.6209,-12.0999 1.5698,0.01 2.498,0.7616 3.1614,2.1338 0.765,1.5786 1.1993,3.3915 2.799,4.6995 0.3313,-7.6455 -0.8544,-9.5971 -7.429,-12.3921 -0.64,-0.2726 -1.2747,-0.4748 -1.5376,-1.2556 0.1319,-1.1107 1.0698,-1.295 1.9291,-1.5574 2.7171,-0.8271 5.4283,-1.677 8.1606,-2.4542 1.5581,-0.4434 3.1497,-0.4364 4.7159,0.0438 2.752,0.8448 3.4495,2.0491 2.7631,4.8503 -0.214,0.8696 -0.8115,1.6449 -0.6094,2.6476 0.7945,0.7186 1.8954,0.5929 2.8539,0.8847 3.6229,1.1023 4.6092,3.6106 2.5855,6.7336 -3.5275,5.4441 -2.0835,9.8799 4.2766,12.673 3.886,1.7064 8.0602,2.3239 12.2598,2.722 2.4707,0.2337 4.9413,0.4639 7.3634,0.6914 0.4632,2.6153 -1.4816,4.545 -1.0942,6.9508 1.3655,-0.9331 1.6995,-2.4652 2.4999,-3.6694 2.3048,-3.4659 5.1724,-6.3389 8.7058,-8.5356 2.8355,-1.763 5.306,-3.8964 7.188,-6.69 1.0423,-1.5473 1.646,-3.1298 0.1222,-4.6141 -1.5841,-1.5432 -2.8717,-0.3456 -4.125,0.7191 -0.6012,0.511 -1.2898,0.9174 -1.9721,1.3943 -0.6599,-0.4796 -1.2849,-0.9338 -1.9829,-1.4421 -0.7193,0.845 -1.3757,1.6162 -1.9899,2.3376 -1.2322,0.183 -0.935,-1.1859 -1.7492,-1.4986 -1.5732,0.4583 -1.6962,3.0444 -4.095,2.806 0.6236,-5.231 -4.0137,-10.6374 0.4529,-15.9416 1.1106,0.6442 1.1577,1.5029 1.4706,2.2064 1.8361,4.1339 4.9659,4.4994 7.7727,0.903 3.1427,-4.028 3.0219,-10.5706 -0.2705,-14.6054 -2.0186,-2.4741 -3.4953,-2.6093 -5.9968,-0.5226 -1.0436,0.8717 -2.0615,1.7746 -3.0758,2.651 -4.4632,-3.1298 -4.3635,-10.554 0.1352,-14.7052 -0.0511,-1.0771 -1.3292,-1.189 -1.6565,-2.1755 1.9305,-1.8771 3.8923,-3.6755 6.9407,-3.6257 12.5125,0.2049 25.0251,0.4283 37.5381,0.4721 2.5534,0.009 3.1211,1.0779 3.0957,3.2719 -0.0354,3.0757 -1.0922,5.5696 -3.7615,7.1961 -2.3164,1.4119 -4.7011,2.709 -7.3855,4.2466 0.9017,1.6892 1.7856,3.3532 2.6784,5.013 1.1844,2.2001 1.8954,4.2979 -1.4727,5.4523 1.5498,2.0977 3.0382,3.6907 5.5437,4.53 0.4583,-3.437 -0.9426,-6.1584 -2.1318,-8.9104 -0.4481,-1.0384 -1.0772,-1.9994 -1.6373,-2.9879 -1.1182,-1.9748 -0.5492,-3.2022 1.614,-3.7991 2.3526,-0.649 4.4947,-1.66 5.8404,-3.8369 1.9535,-3.1613 1.8386,-6.7686 1.9343,-10.2564 0.054,-1.9672 -1.901,-1.6214 -3.1489,-1.6173 -5.5745,0.017 -11.149,0.1132 -16.7216,0.2588 -1.3805,0.0355 -2.7028,0.1073 -4.0239,-0.8873 1.0552,-2.4939 3.1933,-3.4809 5.5882,-3.6824 3.6961,-0.3121 6.9829,-1.6244 10.3826,-3.0055 8.5986,-3.4932 16.9088,-2.1701 23.3624,4.3599 7.4093,7.4982 12.5739,16.6512 15.7503,26.8079 0.17,0.5429 0.4002,1.0731 -0.0349,1.7479 -1.3976,-0.431 -1.914,-1.7438 -2.6476,-2.8012 -2.5944,-3.7453 -5.2194,-7.4633 -8.6245,-10.5426 -2.6558,-2.4023 -5.5977,-4.1804 -9.2542,-4.3703 -0.2459,0.6004 0.0239,0.7555 0.3251,0.875 14.5843,5.7822 22.4328,25.5236 21.0058,39.7322 -0.6584,6.5547 -2.1892,13.0255 -1.7876,19.6771 0.0573,0.9509 -0.1324,1.8164 -1.0771,2.5342 -1.5733,-0.4829 -1.8259,-2.0662 -2.4072,-3.3211 -3.3484,-7.2269 -4.1736,-15.0575 -5.4229,-22.7933 -1.0423,-6.4495 -3.1613,-12.5644 -6.36,-18.2612 -1.6565,-2.9522 -3.5889,-5.7426 -6.824,-7.2991 -0.6318,0.8039 0.0465,1.1638 0.3416,1.4978 7.5944,8.6251 11.0452,18.9142 12.2085,30.1439 0.9139,8.8191 1.584,17.6649 3.2351,26.4019 0.5669,2.9968 1.7527,5.6026 3.3859,8.0946 0.6891,1.0504 1.5219,2.2991 0.6558,3.4597 -0.9352,1.2541 -2.3361,0.4275 -3.4734,0.0689 -2.5991,-0.8196 -5.1818,-1.7022 -7.7298,-2.6701 -7.0785,-2.6906 -10.7896,-8.026 -11.8164,-15.3698 -0.8223,-5.888 -0.7485,-11.7897 -0.2259,-17.7058 0.3791,-4.289 0.5593,-8.5902 -1.4968,-12.6444 -0.4391,3.399 0.1743,6.7932 -0.0184,10.1943 -0.3264,5.7882 -1.015,11.5594 -0.8709,17.3758 0.1702,6.8588 1.9086,13.0275 7.3479,17.6875 0.9445,0.8088 1.8182,1.6995 2.5137,2.9795 -7.2904,0.8715 -12.9892,-2.6346 -18.6669,-6.5159 1.7827,3.5835 4.5717,6.0781 8.3859,7.3944 2.5752,0.8886 5.1764,1.7308 7.8144,2.4016 2.6865,0.6831 4.3211,2.1366 5.0321,4.9059 3.0049,11.6996 10.16,20.085 20.7074,25.7968 10.3142,5.5861 18.8007,13.1115 24.4729,23.5706 1.2965,2.3907 2.9106,4.6114 4.4139,6.8867 0.7809,1.1823 1.9078,1.7063 3.2297,1.0288 1.2384,-0.634 1.7765,-1.8062 1.405,-3.1619 -0.3879,-1.4203 -0.9188,-2.8103 -1.4966,-4.1661 -0.4391,-1.0295 -1.2719,-1.6619 -2.4577,-1.313 -1.3614,0.4018 -2.6825,0.5677 -2.5225,-1.3681 0.144,-1.7506 1.1141,-2.9809 3.1859,-2.6558 1.4233,0.2234 2.5764,1.4884 4.0737,1.1552 0.8647,-0.7707 0.4132,-1.5363 0.2199,-2.287 -1.3689,-5.2993 -3.9447,-9.8389 -8.0021,-13.6061 -11.0172,-10.2261 -19.2052,-22.2824 -21.9264,-37.2751 -1.9543,-10.7666 -1.8532,-21.7572 -1.4427,-32.6781 0.3245,-8.6189 0.3742,-17.2877 2.5006,-25.7468 1.028,-4.091 2.2883,-8.1 4.1764,-11.8712 3.6577,-7.3021 11.7869,-11.1182 19.7475,-9.4714 5.5499,1.1476 8.4072,4.9959 10.3342,9.8894 1.4733,3.7412 1.9078,7.7119 2.6372,11.617 0.4393,2.3518 1.0049,4.6606 1.9475,6.8669 2.3463,5.4891 2.9625,5.8512 8.5656,5.0089 0.5861,3.8615 -2.8312,8.2386 -7.3812,9.4544 -7.4229,1.9843 -11.9673,-1.8299 -16.3827,-13.7863 -1.7876,-0.2582 -2.9139,2.3907 -4.9946,1.1543 0.918,-2.3087 2.7077,-4.239 3.0485,-6.7945 0.071,-0.5348 0.1769,-1.1195 -0.5,-1.7316 -1.4009,0.8682 -2.1769,2.7877 -3.9864,3.1327 -1.1762,-1.1722 -0.0859,-1.9945 0.2186,-2.8525 0.7207,-2.0364 0.8293,-4.011 -0.4145,-5.8663 -1.8369,-2.7412 -4.7344,-2.7671 -6.604,-0.0567 -2.4331,3.528 -3.6373,7.533 -4.5036,11.6812 -1.8189,8.7051 -2.6652,17.4798 -2.2561,26.7202 3.6086,-1.9897 7.1469,-3.6113 10.2269,0.1094 1.6544,2 1.009,4.1955 -1.4214,6.4619 -0.198,-0.0807 -0.4542,-0.1086 -0.5841,-0.2515 -0.9364,-1.0293 -1.1058,-3.0403 -3.0233,-2.8012 -1.6017,0.2002 -1.8265,1.9065 -2.4159,3.063 -1.7924,3.5151 -2.7255,7.1483 -1.7513,11.1838 0.7164,2.9728 1.0039,6.052 1.4349,9.0904 0.16,1.1255 0.341,2.2007 1.2849,3.0109 1.2336,-0.4824 1.4495,-1.7132 2.0137,-2.6333 1.2193,-1.9905 2.7917,-3.5738 4.8368,-4.6955 6.714,-3.6816 6.7132,-3.6829 7.8417,-10.6353 1.1571,-0.127 1.1387,0.828 1.3333,1.5109 1.246,4.3771 0.3026,8.341 -2.4467,11.8753 -1.2549,1.6127 -2.6687,3.1059 -4.0636,4.6046 -4.0977,4.4009 -4.3471,7.3245 -0.8525,13.0603 2.4803,-4.212 5.2426,-8.0452 8.6196,-11.3944 0.9782,-0.97 0.5745,-2.0696 0.2637,-3.1886 -0.575,-2.0656 -1.039,-4.1537 -0.2513,-6.5978 1.9378,1.5151 1.7049,3.888 3.0949,5.4182 2.074,-0.9665 1.2911,-3.5123 2.7712,-4.9816 2.3853,2.0527 1.8,4.6244 0.6504,6.7262 -1.5095,2.7609 -1.0628,4.9084 0.7369,7.168 3.5821,4.4968 4.3539,9.5084 3.1649,15.1151 -1.4981,7.0636 0.0983,14.0171 1.3954,20.9573 0.7923,4.2396 1.7398,8.457 1.8013,12.8144 0.0873,6.2219 -2.552,11.2092 -6.8315,15.4474 -2.5793,2.5542 -5.6318,3.2878 -9.0663,1.7932 -0.7296,-0.317 -1.472,-0.6115 -2.1756,-0.979 -2.194,-1.1447 -3.621,-0.7737 -4.8649,1.6157 -2.672,5.1305 -5.2964,10.3436 -10.2405,13.856 -1.5875,1.1277 -1.373,2.7226 -0.3524,4.235 3.7111,5.4994 8.0806,10.2064 14.8827,11.7316 5.2746,1.1819 6.1285,5.7147 7.3396,9.7537 1.4187,4.7317 0.6121,9.6449 0.631,14.4749 -4.7192,0.1249 -6.7821,3.4468 -5.1618,7.5712 0.3723,0.9474 1.8729,1.8879 0.6126,2.9857 -1.3736,1.1966 -2.1913,-0.3805 -3.1468,-1.0281 -0.5437,-0.3681 -0.9809,-0.931 -1.8916,-0.9542 -1.159,4.1899 1.7938,6.4721 4.0966,9.3068 -3.3697,-1.3128 -5.5453,2.5315 -9.1498,1.1025 1.0341,3.0922 2.8798,5.4467 2.5895,8.3108 -0.2745,2.6955 -0.8484,5.324 -3.5534,6.9442 -0.9761,-1.5437 0.16,-3.1462 -0.7745,-4.5008 -1.052,-0.6653 -2.1667,-0.0916 -3.2289,0.0813 -2.6776,0.4351 -4.6155,-0.4604 -6.056,-2.7638 -2.0221,-3.2328 -4.1702,-3.5211 -6.9619,-0.6837 -1.8861,1.9161 -3.1859,4.4025 -6.3184,4.6914 -0.8601,0.0792 -0.9338,1.1722 -0.9358,1.9939 -0.002,1.125 -7e-4,2.2513 -7e-4,3.4311 -3.6592,-0.9188 -5.8491,-3.9031 -6.149,-8.1033 -0.3348,-4.6886 0.9761,-6.6156 5.7644,-8.4756 -3.565,-4.3211 -4.2173,-4.0882 -10.8109,3.8662 -0.1899,-0.0786 -0.5232,-0.1278 -0.5472,-0.2419 -1.2084,-5.7412 -0.9036,-11.3395 2.5936,-16.2338 2.36,-3.3026 4.2337,-3.1257 6.6954,0.0151 0.7591,0.9699 1.5281,1.9317 2.3691,2.9931 0.9869,-3.0641 0.4056,-5.0716 -1.9462,-6.3197 -1.3498,-0.7151 -2.8444,-1.3804 -3.1394,-2.9037 -0.4959,-2.5649 -2.0089,-2.9338 -4.0397,-2.2604 -0.6339,-1.1311 -0.009,-1.7745 0.4481,-2.3564 3.8069,-4.8416 13.1846,-4.1285 16.3083,1.1701 0.7064,1.1993 0.6967,2.3572 0.3914,3.6032 -0.6524,2.653 -0.2752,5.164 1.0328,7.8203 1.403,-0.8974 1.8683,-2.3237 2.5963,-3.4904 2.5287,-4.0505 5.0875,-8.089 7.4263,-12.2488 2.1626,-3.847 1.4427,-5.1811 -2.909,-6.0247 -2.565,-0.4972 -5.1654,-0.8237 -7.7147,-1.3879 -7.175,-1.5862 -13.8206,-4.4687 -19.9845,-8.4524 -2.8957,-1.871 -5.4386,-4.1579 -7.2774,-7.0991 -2.6511,-4.2406 -2.9482,-8.7453 -1.2276,-13.4169 2.2782,-6.1798 4.5665,-12.3566 6.7897,-18.5562 0.3669,-1.0233 1.1217,-1.9953 0.7247,-3.5828 z" />
      <path
         id="path6"
         style="fill:#000;fill-rule:evenodd"
         d="m 485.3727,179.9695 c -1.1237,-0.3519 -1.7562,-0.5964 -2.4099,-0.748 -7.5247,-1.7454 -15.1512,-3.1346 -22.5611,-5.2767 -21.514,-6.2201 -42.918,-12.809 -61.8432,-25.3604 -2.2513,-1.4925 -4.1053,-1.6024 -6.4427,-0.0335 -3.2938,2.2118 -6.7944,4.1483 -10.3335,5.955 -19.531,9.9715 -40.2382,16.682 -61.4495,21.9642 -5.0294,1.2527 -10.0767,2.4309 -15.3391,3.6967 0.5164,1.7685 0.9018,3.1818 1.3409,4.5786 7.0888,22.5304 14.1244,45.0785 21.3581,67.5626 0.8738,2.7157 0.2966,3.9364 -1.9364,5.4637 -9.1032,6.2282 -18.0241,12.7216 -27.0891,19.0071 -1.6143,1.1195 -1.8983,2.0869 -1.2555,3.9153 9.084,25.8535 21.5705,49.7576 39.4186,70.7655 15.3137,18.0254 33.5277,31.9074 55.5991,40.5989 1.6168,0.6367 3.0636,0.959 4.862,0.226 17.8227,-7.2664 33.6235,-17.5685 47.1113,-31.3105 22.5652,-22.99 37.9446,-50.2944 48.2569,-80.6404 0.7507,-2.2091 0.4188,-3.4394 -1.4146,-4.8629 -8.537,-6.625 -16.9081,-13.464 -25.4656,-20.063 -1.9256,-1.4843 -2.4209,-2.8157 -1.711,-5.1115 4.8927,-15.8431 9.6879,-31.7156 14.4946,-47.5854 2.2658,-7.4782 4.4852,-14.9715 6.8097,-22.7413 z M 297.4731,177.175 c 6.7078,-1.6059 13.4448,-3.1489 20.1458,-4.8356 26.2251,-6.5997 51.4283,-15.8512 75.0694,-29.1157 1.5628,-0.8771 2.9522,-1.3736 4.7398,-0.2959 25.3015,15.2537 52.8907,24.4465 81.5716,30.7779 4.422,0.976 8.832,2.0245 13.584,2.8619 -2.9077,9.6608 -5.7453,19.096 -8.5868,28.5293 -4.2911,14.2482 -8.5007,28.5207 -12.9537,42.717 -0.8026,2.5609 -0.2091,3.8293 1.7697,5.3648 8.7196,6.7653 17.2811,13.7331 25.9759,20.5304 1.6638,1.3013 2.134,2.349 1.4139,4.5329 -14.1293,42.864 -38.1337,78.7592 -74.4853,105.9809 -7.1395,5.3477 -15.085,9.2919 -23.212,12.8705 -4.3839,1.9302 -8.8896,1.4316 -13.3835,0.3278 -7.8314,-1.9243 -14.9373,-5.4153 -21.5099,-10.0227 -26.8064,-18.792 -47.4391,-42.898 -62.3396,-72.0304 -5.912,-11.5589 -11.289,-23.2865 -14.8957,-35.799 -0.7712,-2.6749 -0.4966,-4.1898 1.9564,-5.8504 8.9467,-6.0568 17.6517,-12.4701 26.5748,-18.5625 2.2554,-1.5395 2.8668,-2.9398 2,-5.5737 -7.4934,-22.7614 -14.3841,-45.72 -22.4388,-68.2976 -0.4475,-1.2546 -1.0068,-2.4966 -0.996,-4.1099 z" />
      <path
         id="path8"
         style="fill:#000;fill-rule:evenodd"
         d="m 394.9166,109.7957 c -1.3676,2.1094 -2.5021,3.9112 -3.694,5.675 -0.5124,0.7574 -0.5321,1.3927 0.0129,2.1483 1.2999,1.8011 2.541,3.644 3.8511,5.5348 5.6025,-7.5472 5.2939,-4.7112 -0.17,-13.3581 z m 27.5078,-14.4989 c 0.7937,0.9625 0.4427,1.8689 0.2651,2.6803 -2.3963,10.9763 -4.8437,21.941 -7.242,32.9173 -0.3067,1.4003 -0.4918,2.5649 -2.4358,2.5547 -12.4939,-0.0649 -24.9886,-0.0335 -37.7389,-0.0335 -2.9973,-12.0753 -5.3532,-24.1131 -6.55,-36.508 2.2802,3.8715 4.593,7.7247 6.8259,11.6229 1.0282,1.7938 2.2399,3.4067 3.7405,4.826 1.5854,1.5 2.8908,1.4154 4.2125,-0.401 3.1225,-4.2931 5.104,-9.1059 6.4284,-14.1812 1.289,-4.94 2.3218,-9.9468 3.4987,-14.9167 0.358,-1.5103 0.6004,-3.0808 1.487,-4.4782 1.7283,0.9985 1.7097,2.5642 1.9483,3.978 1.3414,7.9584 2.9071,15.8555 6.1714,23.3023 0.8669,1.9781 1.7589,3.9467 3.1497,5.6305 2.1086,2.5527 3.289,2.6838 5.4624,0.1988 3.6899,-4.2187 6.3765,-9.1012 8.8274,-14.1114 0.5286,-1.0814 0.8107,-2.3212 1.9494,-3.0808 z" />
      <path
         id="path10"
         style="fill:#000;fill-rule:evenodd"
         d="m 347.2805,149.4478 c -1.5478,-7.0296 -3,-13.6245 -4.5057,-20.4634 9.1498,-2.9276 18.0659,-5.7816 27.1166,-8.6777 1.556,3.4978 2.0507,7.1045 2.9878,10.5718 1.2268,4.5403 1.1496,4.5411 5.9693,4.6789 1.7856,0.0506 3.5678,0.2208 5.4148,0.7002 -12.061,4.9632 -24.2997,9.2352 -36.9828,13.1902 z" />
      <path
         id="path12"
         style="fill:#000;fill-rule:evenodd"
         d="m 405.3327,135.8994 c 3.4824,-0.1927 6.9639,-0.3845 10.5439,-0.5826 1.2814,-4.8935 2.539,-9.7003 3.8518,-14.7154 6.7637,1.4768 13.0554,3.7151 19.4135,5.7131 2.0546,0.6456 4.0629,1.4379 6.1196,2.0767 1.1265,0.3502 1.8191,0.8469 1.5321,2.1604 -1.349,6.1874 -2.683,12.378 -4.1236,19.0304 -12.7906,-4.3785 -25.1739,-8.6177 -37.5573,-12.8574 z" />
      <path
         id="path14"
         style="fill:#000;fill-rule:evenodd"
         d="m 342.5233,134.689 c 1.3798,5.6142 2.6182,10.6524 3.9345,16.0085 3.5794,-1.0137 6.9086,-1.9564 10.6198,-3.0069 -0.4864,2.7077 -1.2173,5.1298 -3.5869,6.1974 -9.8887,4.4571 -19.8651,8.7215 -30.3755,13.3035 1.2063,-5.0943 3.7836,-9.0212 4.9332,-13.5227 -4.0615,-2.8292 -8.938,-3.9052 -13.5186,-6.8472 9.4952,-4.1155 18.5515,-8.0403 27.9935,-12.1326 z" />
      <path
         id="path16"
         style="fill:#000;fill-rule:evenodd"
         d="m 447.2429,135.2463 c 9.6319,3.2732 18.5499,7.0309 27.6656,11.7208 -4.3703,2.8681 -9.0166,4.0698 -13.2359,6.621 1.7309,4.3047 3.4365,8.5467 5.2481,13.0487 -2.358,-0.1189 -3.9858,-1.1804 -5.6948,-1.9051 -7.2036,-3.0555 -14.2994,-6.3798 -21.5836,-9.2234 -3.6224,-1.4146 -6.0193,-3.4543 -6.7549,-7.5398 2.8647,0.0527 5.4045,1.3074 8.0165,2.1059 1.957,0.5977 2.8061,0.4023 3.2371,-1.8108 0.8196,-4.2118 1.9713,-8.3594 3.1019,-13.0173 z" />
      <path
         id="path18"
         style="fill:#000;fill-rule:evenodd"
         d="m 361.2806,304.7123 c 1.6894,-0.5294 3.3471,-1.0491 5.1524,-1.6147 -4.2847,-1.7897 -5.431,-1.4386 -5.1524,1.6147 z m -0.625,14.0706 c 0,2.8389 0.1202,5.6852 -0.0389,8.5151 -0.1208,2.1517 0.7269,3.4994 2.6449,4.2276 5.0862,1.9303 10.19,1.9494 15.2878,0.0294 2.0553,-0.7739 2.9543,-2.2187 2.9195,-4.4619 -0.0827,-5.2904 -0.093,-10.5848 0.0129,-15.8752 0.0471,-2.3266 -0.679,-4.0185 -2.8922,-4.8608 -5.0916,-1.9364 -10.2064,-1.9343 -15.2904,0.024 -1.8873,0.7275 -2.8074,2.0532 -2.6825,4.2186 0.1578,2.7192 0.0383,5.4544 0.0389,8.1832 z m -22.5412,-5.3894 c 0,4.6468 0.0984,9.2958 -0.0437,13.938 -0.0649,2.1469 0.7158,3.468 2.6482,4.2076 5.0951,1.9497 10.2031,1.9195 15.292,0.0124 1.7192,-0.6442 2.7239,-1.7467 2.705,-3.8285 -0.0827,-9.1853 -0.0821,-18.3718 0.003,-27.5565 0.0191,-2.114 -0.6913,-3.4502 -2.6591,-4.2023 -5.2277,-1.9972 -10.4293,-1.9467 -15.613,0.123 -1.6449,0.6564 -2.4099,1.8075 -2.3662,3.6886 0.1038,4.537 0.0335,9.0779 0.0335,13.6177 z m 37.6959,-24.1649 0.0957,0.0854 c 0.2459,-0.8642 0.6175,-1.7138 0.7178,-2.5944 0.5471,-4.8014 -0.2554,-5.9113 -4.9993,-7.257 -3.244,-0.9206 -6.5562,-0.8531 -9.7748,-0.2191 -5.3354,1.0504 -6.0698,2.1591 -5.9666,7.5595 0.0109,0.5675 0.0567,1.1352 0.0533,1.7022 -0.0301,5.5594 1.3373,6.8969 7.0206,7.6033 3.6851,0.4583 7.2616,-0.0527 10.8785,-0.4912 -4.1441,1.8872 -8.4728,1.8654 -12.8486,1.0827 -0.1898,4.556 -0.1822,4.459 3.9899,4.7808 2.9884,0.2301 5.8506,-0.4707 8.7685,-0.7582 -1.3709,1.4884 -3.4392,1.1517 -5.6345,1.8805 3.1079,0.2192 5.6545,0.4002 8.6045,0.6086 -0.3326,-1.4741 0.5432,-2.8471 -0.9317,-3.8772 1.3382,-3.3654 1.3682,-6.7337 0.0267,-10.1059 z m 16.1525,91.6126 c -5.3259,0.6345 -10.1934,-0.5315 -14.811,-2.9549 -8.1381,-4.272 -15.0062,-10.2059 -21.6062,-16.5072 -21.0098,-20.0576 -36.926,-43.6515 -48.8005,-70.0692 -1.1169,-2.4845 -2.3013,-4.9414 -3.5472,-7.3629 -0.681,-1.323 -0.5614,-2.1401 0.7193,-3.1162 10.759,-8.2057 21.4656,-16.4816 32.1589,-24.7729 1.0834,-0.8401 2.2262,-0.9836 3.5035,-0.9823 16.4968,0.0144 32.9937,0.0424 49.4897,-0.0273 2.3028,-0.009 3.1716,0.6299 3.1675,3.0828 -0.0656,40.1611 -0.0459,80.3215 -0.0554,120.4818 0,0.6647 -0.1264,1.3293 -0.2186,2.2283 z" />
      <path
         id="path20"
         style="fill:#000;fill-rule:evenodd"
         d="m 438.7158,219.6241 c -1.1961,1.8716 -2.3915,3.7433 -3.5479,5.5528 5.3246,6.6032 15.0289,7.9992 21.8889,3.2943 3.0554,-2.0964 3.1449,-2.552 1.2644,-5.6839 -0.3457,-0.5756 -0.5621,-1.2355 -0.7918,-1.8735 -2.1086,-5.8725 -4.3428,-11.7051 -6.2554,-17.6403 -1.1182,-3.4707 -2.5799,-6.9734 -2.0957,-10.7455 0.3416,-2.6639 -0.1181,-3.3702 -2.6687,-3.0676 -1.1087,0.1313 -2.2029,0.8423 -3.3252,0.2856 -3.0848,-1.5308 -6.3164,-2.2302 -10.0617,-1.4406 0,-1.5021 -0.0149,-2.5035 0.004,-3.5042 0.0246,-1.2431 -0.5944,-1.9761 -1.8013,-2.0062 -1.2568,-0.0313 -1.7356,0.7501 -1.7978,1.9762 -0.0546,1.0882 0.504,2.2615 -0.4796,3.4605 -1.7827,-0.1127 -3.7815,-0.658 -5.5853,0.043 -2.6572,1.0328 -5.1362,2.0239 -8.1662,1.2268 -1.2371,-0.3251 -3.1859,0.1564 -1.8921,2.8627 0.7139,1.4939 0.1886,3.8307 -0.3429,5.6202 -1.3182,4.4393 -2.8429,8.828 -4.5063,13.1519 -1.6981,4.4133 -2.5239,9.1995 -5.4754,13.0965 -0.7466,0.9857 0.0847,1.711 0.6202,2.3614 1.89,2.2964 4.509,3.403 7.2815,4.1483 6.3438,1.7043 13.5761,-0.8791 16.5986,-6.0814 -2.1701,-1.2896 -2.5766,-3.6995 -3.4856,-5.8661 -1.1236,-2.6785 -1.5001,-5.6601 -3.2644,-8.0754 l 0.1011,0.108 c -1.1552,-4.3689 -2.3628,-8.7242 -3.9823,-12.9475 -0.9474,-2.4694 -0.3054,-5.0781 1.5668,-5.3464 2.8033,-0.4018 5.6053,-0.9264 8.475,-0.7507 1.7957,0.1099 2.7363,0.9125 2.7425,2.7382 0.005,1.593 0.026,3.1854 0.0266,4.7776 7e-4,9.0998 0.0356,18.1996 -0.0238,27.2995 -0.0241,3.808 -0.4264,4.205 -4.0945,4.9378 -1.4555,0.2918 -2.8776,0.6032 -4.1496,1.4414 -1.3176,0.8674 -1.6789,2.0799 -1.4454,3.5424 0.2248,1.4084 1.4011,1.7602 2.5021,1.9413 5.7644,0.948 11.5488,0.948 17.3192,0.0559 1.2282,-0.1905 2.4926,-0.5342 2.6006,-2.192 0.0949,-1.4603 -0.2364,-2.6523 -1.5451,-3.5335 -1.4884,-1.002 -3.1887,-1.1401 -4.8595,-1.4187 -2.1066,-0.3518 -3.1681,-1.4692 -3.1605,-3.6948 0.037,-11.0335 0.0465,-22.0679 -0.006,-33.1007 -0.009,-2.0937 0.9201,-2.7911 2.8833,-2.8055 3.2786,-0.0238 6.4781,0.4837 9.7392,0.895 0.0732,0.7785 0.1837,1.3387 0.1694,1.8948 -0.1189,4.4699 -1.7364,8.5778 -3.0657,12.7625 -1.1974,3.7677 -3.1387,7.3066 -3.5178,11.3279 -0.1297,0.3237 -0.2602,0.6476 -0.3899,0.972 z m -40.636,-64.8452 c 1.8724,0.7269 3.1962,1.0828 4.3677,1.7186 20.1185,10.9236 41.6338,18.0146 63.787,23.3877 3.0869,0.748 6.093,1.8279 9.1765,2.5936 1.8435,0.4576 2.4029,1.2842 1.8551,3.1509 -6.0841,20.6936 -12.1429,41.3942 -18.1294,62.1164 -0.5021,1.737 -1.2731,2.401 -3.0622,2.3969 -18.5445,-0.0424 -37.0898,-0.0546 -55.6345,0.0116 -2.1086,0.008 -2.3997,-0.9454 -2.3826,-2.6871 0.0608,-6.3711 0.0232,-12.7435 0.0224,-19.1144 v -69.971 z" />
      <path
         id="path22"
         style="fill:#000;fill-rule:evenodd"
         d="m 403.2541,259.7871 v 115.2823 c 1.8478,-0.3011 3.3205,-0.821 4.727,-1.5998 6.1782,-3.424 12.1299,-7.1961 17.5747,-11.7064 13.9604,-11.5622 25.262,-25.4942 35.6165,-40.2471 7.7282,-11.0104 14.3336,-22.6349 19.3192,-35.1726 1.0452,-2.6284 0.4769,-3.9679 -1.6619,-5.599 -7.235,-5.5172 -14.4776,-11.0514 -21.3554,-16.9983 -3.5261,-3.0486 -7.1053,-4.1271 -11.6777,-4.0479 -14.0952,0.2439 -28.1964,0.0888 -42.5424,0.0888 z m -4.9992,120.7265 v -124.665 c 0.9972,-0.7699 2.0573,-0.5234 3.0525,-0.524 16.725,-0.017 33.4493,0.009 50.1743,-0.0416 1.8046,-0.005 3.2452,0.444 4.666,1.5847 9.7541,7.8321 19.5522,15.6109 29.3657,23.3685 1.2385,0.9782 2.1313,1.748 1.3511,3.5991 -14.2741,33.8789 -34.5761,63.3725 -63.2787,86.6781 -5.4523,4.4263 -11.3062,8.4442 -18.5193,9.7413 -2.1443,0.3867 -4.2571,0.5472 -6.8116,0.2589 z" />
      <path
         id="path24"
         style="fill:#000;fill-rule:evenodd"
         d="m 317.5982,186.1111 c 6.4905,19.7789 12.8514,39.0689 19.1171,58.3887 0.6715,2.0697 2.1148,1.694 3.5253,1.6962 14.5576,0.0135 29.1166,-0.0732 43.6736,0.077 2.8947,0.0294 3.5327,-0.8483 3.5211,-3.6223 -0.1065,-25.7031 -0.0628,-51.4078 -0.0628,-77.1116 v -3.6135 c -22.5359,10.632 -45.5,18.6745 -69.7743,24.1855 z m 74.5941,64.1121 h -2.492 c -17.8568,0 -35.7141,-0.0347 -53.5703,0.0499 -2.041,0.01 -2.9428,-0.6099 -3.5684,-2.5525 -6.6791,-20.7401 -13.4523,-41.4501 -20.1834,-62.1745 -0.2431,-0.7486 -0.3218,-1.5512 -0.5607,-2.7514 5.5834,-1.4133 11.1128,-2.925 16.6948,-4.2056 20.3664,-4.6708 39.7061,-12.0829 58.2571,-21.628 5.2118,-2.6825 5.1886,-2.7058 5.2029,3.1338 0.0697,28.5455 0.1462,57.091 0.2192,85.6358 0.003,1.3478 8e-4,2.6954 8e-4,4.4925 z" />
      <path
         id="path26"
         style="fill:#000;fill-rule:evenodd"
         d="m 439.1059,218.6523 c 2.5663,-5.0562 3.9298,-10.5747 6.0739,-15.7947 0.3353,-0.8156 0.4672,-1.7173 1.0779,-2.2931 1.1579,0.1427 1.056,0.8717 1.0595,1.5411 0.0287,6.015 -0.0157,12.0309 0.1284,18.0424 0.0464,1.9824 -0.481,2.9176 -2.5758,2.9668 -2.1183,0.0484 -4.242,0.8482 -6.339,-0.1416 -0.5245,-1.1817 0.261,-2.2431 0.1851,-3.3489 0.1298,-0.3246 0.2603,-0.6483 0.39,-0.972 z" />
      <path
         id="path28"
         style="fill:#000;fill-rule:evenodd"
         d="m 339.5275,298.6434 c 1.0109,-1.8259 2.9509,-2.0021 4.6414,-2.3333 3.9626,-0.778 7.9222,-0.6865 11.6921,1.0041 1.1539,0.517 2.0773,1.2473 0.6107,2.474 -3.2608,2.7268 -13.7317,2.0636 -16.9442,-1.1448 z" />
      <path
         id="path30"
         style="fill:#000;fill-rule:evenodd"
         d="m 356.7631,326.5479 c -5.6136,2.6598 -11.2564,2.813 -16.8685,-0.0771 5.6094,1.6084 11.2147,1.7546 16.8685,0.0771 z" />
      <path
         id="path32"
         style="fill:#000;fill-rule:evenodd"
         d="m 340.5692,305.7609 c 5.6345,1.6079 11.216,1.7322 16.7127,-0.5683 -4.1339,3.1441 -12.1731,3.427 -16.7127,0.5683 z" />
      <path
         id="path34"
         style="fill:#000;fill-rule:evenodd"
         d="m 342.8544,311.8284 c 4.3827,0.4004 8.7223,0.5069 13.7325,-1.1339 -3.7685,2.4599 -8.5007,2.776 -13.7325,1.1339 z" />
      <path
         id="path36"
         style="fill:#000;fill-rule:evenodd"
         d="m 339.4466,315.7509 c 5.1175,2.0478 10.3416,1.864 15.6128,1.0539 -5.3299,1.5505 -10.5896,1.858 -15.6128,-1.0539 z" />
      <path
         id="path38"
         style="fill:#000;fill-rule:evenodd"
         d="m 354.6025,321.9798 c -4.231,1.9762 -9.5228,1.7965 -13.925,-0.4767 4.6059,1.205 9.246,1.4282 13.925,0.4767 z" />
      <path
         id="path40"
         style="fill:#000;fill-rule:evenodd"
         d="m 379.7526,309.131 c -3.6073,3.7991 -13.3389,3.8961 -17.6101,0.1768 3.3797,-4.065 13.6463,-4.1688 17.6101,-0.1768 z" />
      <path
         id="path42"
         style="fill:#000;fill-rule:evenodd"
         d="m 361.7426,325.979 c 6.3076,2.1264 11.9202,2.2232 17.8595,0.1276 -4.3053,3.2897 -12.5233,3.3197 -17.8595,-0.1276 z" />
      <path
         id="path44"
         style="fill:#000;fill-rule:evenodd"
         d="m 363.221,321.4869 c 2.3982,0.3148 4.6392,1.0149 7.0301,1.0417 2.2602,0.0259 4.4672,-0.3675 7.067,-0.677 -3.8477,2.1605 -9.8929,1.9735 -14.0971,-0.3647 z" />
      <path
         id="path46"
         style="fill:#000;fill-rule:evenodd"
         d="m 377.6267,316.7682 c -4.4692,1.616 -9.0506,1.4173 -13.6347,0.0811 4.5179,0.4686 9.035,0.955 13.6347,-0.0811 z" />
      <path
         id="path48"
         style="fill:#000;fill-rule:evenodd"
         d="m 356.7186,283.1249 c 4.5554,-3.4386 9.0439,-3.2911 13.5002,-2.6074 1.7343,0.2659 4.6532,0.2932 4.5889,2.5301 -0.06,2.1108 -2.9235,2.1729 -4.7124,2.442 -4.3915,0.6591 -8.7543,0.5875 -13.3767,-2.3647 z" />
      <path
         id="path50"
         style="fill:#000;fill-rule:evenodd"
         d="m 375.8103,289.2286 c -4.9434,3.7329 -10.3615,3.0095 -15.8541,1.5792 5.468,1.0157 10.7666,0.3353 15.9498,-1.4938 z" />
      <path
         id="path52"
         style="fill:#000;fill-rule:evenodd"
         d="m 420.8305,210.7196 c 0.6134,4.3393 3.0103,8.1981 3.6224,12.7379 -3.1559,0.3632 -6.0193,-0.1565 -9.0398,-0.6074 -0.517,-7.3545 -0.1073,-14.6141 0.2296,-21.9321 2.8147,2.826 2.8982,6.9743 5.2883,9.9094 z" />
      <path
         id="path54"
         style="fill:#000;fill-rule:evenodd"
         d="m 457.0732,223.363 c -3.1319,0.5245 -5.9003,-0.1367 -8.8477,-0.4597 v -21.1376 l 0.6659,-0.2356 c 3.5261,6.9043 5.9879,14.229 8.1818,21.8329 z" />
      <path
         id="path56"
         style="fill:#000;fill-rule:evenodd"
         d="m 413.635,200.7329 c 1.4106,7.3294 1.116,13.9101 0.978,20.4847 -0.0217,1.0444 -0.3067,1.756 -1.5177,1.7881 -2.3709,0.063 -4.7153,0.7139 -7.5657,0.3224 2.2234,-7.539 4.7249,-14.8184 8.1054,-22.5952 z" />
      <path
         id="path58"
         style="fill:#000;fill-rule:evenodd"
         d="m 447.9399,317.1276 c 0.0989,-1.095 0.2027,-1.7644 0.2124,-2.4359 0.0519,-3.5772 0.0403,-3.6064 -3.4454,-3.5499 -1.9188,0.0316 -3.8007,-0.25 -5.7733,-0.6434 -0.427,2.0151 -0.461,3.8717 0.0246,5.9373 3.0362,-0.9543 5.8825,-0.3477 8.9817,0.6919 z m -4.0472,-6.9386 c 1.2847,-0.1913 3.1201,0.0635 3.9037,-1.6598 0.7616,-1.6756 -1.888,-5.679 -3.9072,-6.2057 -1.4357,-0.3743 -4.834,1.9678 -5.2056,3.5881 -0.6058,2.6436 1.2082,4.2084 5.2091,4.2774 z m 4.0513,10.9625 c 0.0381,-2.942 -1.2563,-3.9604 -5.19,-4.0826 -3.1381,-0.0978 -4.0663,0.765 -4.1128,3.821 -0.0519,3.3805 0.9952,5.1156 3.0479,5.05 2.946,-0.093 6.2262,-2.6045 6.2549,-4.7884 z m -9.048,-17.8663 c 5.6285,-3.4105 7.9304,-7.0123 7.8998,-12.119 -0.024,-4.0307 -3.7564,-9.3041 -6.6184,-9.3512 -3.5205,-0.0589 -6.3962,3.9091 -6.4194,9.0458 -0.0254,5.6791 0.0218,11.3595 0.1078,17.0378 0.0732,4.7911 -1.5614,8.6266 -5.7685,11.2154 -0.9563,0.5888 -2.2815,1.0028 -2.3375,2.619 3.9037,0.4091 7.6123,1.3333 11.5338,1.3538 0.5853,-9.1914 -0.2781,-18.1083 0.4775,-26.9936 0.4226,1.1161 0.394,2.2309 0.4302,3.3435 0.0403,1.2214 0.005,2.4647 0.6947,3.8485 z m -18.999,18.6983 c 5.3253,-1.9221 7.5555,-4.927 7.7331,-9.9727 0.2302,-6.5897 0.3286,-13.1826 0.5123,-19.7735 0.1592,-5.718 1.8697,-8.0999 7.2945,-10.1921 2.1169,-0.8171 4.2514,-1.5889 6.3881,-2.3533 4.7425,-1.6954 9.0528,0.6463 10.3867,5.6061 1.136,4.2241 -0.0403,7.8552 -2.8415,11.0452 -1.2541,1.4276 -2.6052,2.7698 -4.4154,4.683 8.4934,0.7855 9.1887,6.587 9.1314,12.9081 -0.0227,2.5007 0.0176,5.007 0.1638,7.5036 0.1134,1.9418 -0.5935,2.9138 -2.5915,3.1619 -5.1851,0.6434 -9.9065,2.562 -13.9668,5.8463 -1.4747,1.1933 -2.4521,0.9188 -3.8478,-0.0157 -4.4795,-2.9981 -9.3806,-4.5089 -14.8457,-3.7664 -1.7269,0.2343 -3.3088,0.7923 -4.7732,1.7036 -1.9456,1.2097 -3.0617,2.7233 -1.8362,5.0983 0.2035,0.3942 0.3259,0.8682 0.3449,1.3122 0.0375,0.8812 0.2037,1.9462 -1.0232,2.1661 -1.0438,0.1865 -1.6948,-0.4699 -2.0752,-1.3962 -0.8688,-2.1148 -0.2922,-4.0513 0.8968,-5.8096 1.1449,-1.6927 2.4742,-3.2589 3.6907,-4.9043 0.8094,-1.0958 1.6122,-2.2023 2.3299,-3.3594 1.235,-1.9932 1.7789,-4.0861 -0.2902,-5.8375 -2.2788,-1.9283 -3.6257,0.056 -4.9754,1.6333 -1.3068,-3.1143 -0.5021,-4.9046 2.7096,-6.3547 3.3888,-1.5302 3.9126,-2.666 2.4776,-5.3655 -1.4857,-2.7944 -4.0739,-3.4319 -6.8547,-1.7173 -0.5484,0.3381 -0.9215,1.0136 -1.696,0.9585 -0.8982,-4.6389 0.7323,-5.9893 8.3683,-6.9559 2.3621,-9.1442 2.3621,-9.1442 7.5267,-14.843 -3.897,0.7432 -7.4605,0.237 -10.9209,-0.9387 -3.429,-1.1644 -3.7364,2.0275 -5.177,3.727 -1.5498,-4.856 1.6319,-9.2987 6.5124,-9.2829 2.0867,0.006 4.0294,0.6837 5.9501,1.3831 3.7318,1.3595 7.4722,1.9489 11.3117,0.4481 0.5253,-0.2055 1.0957,-0.3646 1.6373,-0.0403 0.175,0.1045 0.285,0.317 0.4701,0.5336 -0.2153,1.3285 -1.5084,1.6044 -2.4052,2.0716 -6.6695,3.4721 -8.5267,9.2271 -8.1831,16.2592 0.237,4.8738 0.14,9.7651 0.1393,14.6484 0,3.4713 -0.64,6.787 -3.2563,10.1818 z" />
      <path
         id="path60"
         style="fill:#000;fill-rule:evenodd"
         d="m 352.7477,226.3268 c -3.0664,-3.567 -5.6353,-6.6853 -9.0671,-8.9045 -1.5689,-1.0144 -3.4946,-2.4749 -5.0705,-0.2999 -1.4241,1.9651 0.0635,3.6961 1.4563,5.0246 3.3662,3.2111 7.5957,3.942 12.6813,4.1798 z m -3.9155,-33.038 c -3.0812,1.7432 -3.664,4.2179 -1.9091,7.2091 1.7283,2.9468 4.5486,4.6455 7.4325,6.222 3.9385,2.1537 3.9515,2.1298 6.6538,-1.5336 -4.9346,-2.9425 -11.1314,-4.5846 -12.1772,-11.8975 z m 3.0111,23.8677 c 0.1462,0.3464 0.1659,0.4693 0.2356,0.5485 1.7911,2.0589 3.7659,3.9864 5.3348,6.2017 1.6906,2.3872 3.7637,2.9468 6.4544,2.4215 1.9112,-0.3729 3.6037,-1.0412 4.039,-3.1019 0.4297,-2.0329 -0.6428,-3.53 -2.3901,-4.4679 -2.0997,-1.1264 -4.255,-2.1518 -6.3949,-3.203 -4.0758,-2.0013 -4.0785,-1.9959 -7.2788,1.6011 z m 1.8894,-26.9375 c -0.0567,2.1687 0.6632,4.078 2.3045,5.4584 2.5363,2.1339 5.5426,3.5937 8.5529,4.847 2.1202,0.8826 2.7439,-1.7978 4.1285,-2.7493 0.8134,-0.5588 1.1598,-1.3203 0.4445,-2.3136 -2.3839,-3.3101 -4.5027,-6.8403 -7.9481,-9.235 -1.6162,-1.1236 -3.4419,-1.4638 -5.1586,-0.6169 -1.7808,0.8771 -2.3464,2.6674 -2.3237,4.6094 z m 6.0642,19.0885 c 2.7406,1.4768 5.2461,2.7855 7.7111,4.168 1.8027,1.0109 3.3718,2.3142 4.423,4.1401 3.0239,5.25 0.7637,9.8949 -5.1926,10.6244 -1.4879,0.1824 -2.9927,0.2179 -4.8738,0.3478 0.8961,0.9869 1.5349,1.5014 1.9316,2.1611 1.6278,2.7065 3.8418,2.6573 6.4449,1.6429 4.8129,-1.8765 7.5493,-6.7673 6.5896,-12.1082 -1.1278,-6.2747 -5.125,-10.1346 -10.6887,-12.7406 -3.6675,-1.7179 -3.6286,-1.8019 -6.3451,1.7645 z m -9.2139,6.9754 c 1.0471,-1.1612 1.9488,-2.1613 2.9865,-3.3122 -2.0432,-1.6332 -4.52,-2.5164 -6.4094,-4.2801 -3.2985,-3.0806 -5.6735,-6.5103 -4.996,-11.3225 0.4516,-3.2057 1.9891,-5.0494 5.0746,-5.4831 1.4311,-0.2008 2.1353,-0.7377 2.7684,-1.998 2.5193,-5.0116 7.4361,-6.7132 12.2188,-8.5562 1.306,-0.5034 1.8408,0.5424 2.4796,1.289 2.8703,3.3594 5.7158,6.7386 8.47,9.9927 1.4324,-0.0165 1.6988,-1.7132 3.5261,-1.5185 -2.4482,4.3655 -6.7243,6.7673 -9.5589,10.343 0.8736,1.3259 2.192,1.5432 3.2432,2.1531 5.9201,3.4378 9.8048,8.3067 10.9763,15.1826 1.0115,5.9358 -1.9394,11.757 -7.4415,14.2993 -3.8899,1.7986 -8.0806,2.1415 -12.2999,2.3307 -0.9836,0.0437 -1.4475,-0.4646 -1.9604,-1.0677 -0.662,-0.7793 -1.4052,-1.5074 -1.9529,-2.3607 -1.9284,-3.0047 -4.5719,-4.1304 -8.1846,-4.4966 -5.9966,-0.608 -11.2263,-2.8819 -13.113,-9.5411 -0.6112,-2.1558 0.0343,-3.862 1.4263,-5.2664 1.3525,-1.3649 3.1243,-1.7105 5.0521,-1.1093 2.7766,0.8653 5.0143,2.599 7.6947,4.722 z" />
    </g>
    <path
       id="path63"
       style="fill:#000;fill-rule:evenodd"
       d="m 27.5227,460.2056 c 0,15.8049 1.119,27.3416 18.2661,27.3416 17.1497,0 18.2686,-11.5367 18.2686,-27.3416 v -8.4554 c -0.4478,-15.0933 -1.5655,-26.314 -18.2686,-26.314 -16.7006,0 -17.8195,11.2207 -18.2661,26.314 z m 10.7364,-10.9048 c 0,-4.5841 -0.6711,-14.9353 7.5297,-14.9353 7.7555,0 7.5309,10.5092 7.5309,15.2513 v 15.1729 c 0,5.6888 -0.0731,13.8282 -7.5309,13.8282 -7.1576,0 -7.5297,-7.9815 -7.5297,-12.8803 z m 33.8868,10.9048 c 0,15.8049 1.1189,27.3416 18.2673,27.3416 17.1484,0 18.2674,-11.5367 18.2674,-27.3416 v -8.4554 c -0.4466,-15.0933 -1.5655,-26.314 -18.2674,-26.314 -16.7018,0 -17.8195,11.2207 -18.2673,26.314 z m 10.7364,-10.9048 c 0,-4.5841 -0.6698,-14.9353 7.5309,-14.9353 7.7543,0 7.5297,10.5092 7.5297,15.2513 v 15.1729 c 0,5.6888 -0.0731,13.8282 -7.5297,13.8282 -7.1575,0 -7.5309,-7.9815 -7.5309,-12.8803 z m 33.8868,10.9048 c 0,15.8049 1.1189,27.3416 18.2673,27.3416 17.1497,0 18.2673,-11.5367 18.2673,-27.3416 v -8.4554 c -0.4465,-15.0933 -1.5654,-26.314 -18.2673,-26.314 -16.7006,0 -17.8195,11.2207 -18.2673,26.314 z m 10.7363,-10.9048 c 0,-4.5841 -0.6698,-14.9353 7.531,-14.9353 7.7543,0 7.531,10.5092 7.531,15.2513 v 15.1729 c 0,5.6888 -0.0744,13.8282 -7.531,13.8282 -7.1576,0 -7.531,-7.9815 -7.531,-12.8803 z m 60.3563,31.9258 v -8.9307 l -7.0088,-6.4003 7.0088,-6.2436 v -8.8497 l -11.7052,11.1424 v 8.0598 z m 14.0174,0 v -8.9307 l -7.1576,-6.4003 7.1576,-6.2436 v -8.8497 l -11.8553,11.1424 v 8.0598 z m 30.9047,-3.7943 H 222.494 V 426.858 h -10.4374 v 59.2674 h 51.8931 V 426.858 H 253.511 v 50.5743 H 243.2225 V 426.858 h -10.4387 z m 50.8864,8.6931 v -16.9905 l 3.6532,-6.4002 9.842,23.3907 h 11.7809 L 294.481,452.3038 308.2752,426.858 h -11.7809 l -6.1144,12.0903 c -2.2365,4.3465 -4.9197,9.5626 -6.5609,14.2238 h -0.1488 V 426.858 h -10.4387 v 59.2674 z m 28.2203,-25.9198 c 0,15.8049 1.1189,27.3416 18.2673,27.3416 17.1484,0 18.2674,-11.5367 18.2674,-27.3416 v -8.4554 c -0.4466,-15.0933 -1.5655,-26.314 -18.2674,-26.314 -16.7018,0 -17.8195,11.2207 -18.2673,26.314 z m 10.7364,-10.9048 c 0,-4.5841 -0.6698,-14.9353 7.5309,-14.9353 7.7543,0 7.5297,10.5092 7.5297,15.2513 v 15.1729 c 0,5.6888 -0.0731,13.8282 -7.5297,13.8282 -7.1575,0 -7.5309,-7.9815 -7.5309,-12.8803 z m 67.0672,36.8246 V 426.858 h -32.2848 v 34.0592 c 0,11.3787 0,16.9904 -6.2632,16.9904 v 9.6396 c 15.7318,0 15.9564,-11.9323 15.9564,-26.3937 V 435.551 h 12.153 v 50.5744 z m 15.9916,0 2.7602,-15.015 h 12.2274 l 2.7588,15.015 h 11.1842 L 421.9411,426.858 h -14.0919 l -13.3464,59.2674 z m 7.531,-40.5391 c 0.5223,-2.7654 0.7455,-5.4524 1.0445,-8.2178 0.0744,-1.3435 0.2233,-2.687 0.3721,-3.9522 h 0.1489 c 0.1488,1.2652 0.2977,2.6087 0.3734,3.9522 0.2977,2.7654 0.5223,5.4524 1.0432,8.2178 l 2.8333,16.8324 h -8.9476 z m 50.4398,31.846 V 459.494 h 4.323 c 4.5489,0 7.6068,2.0551 7.6068,9.2466 0,6.7959 -2.5356,8.6917 -8.4254,8.6917 z m 18.9372,-50.5743 h -29.3758 v 59.2674 h 17.074 c 10.8851,0 16.0294,-7.9815 16.0294,-17.7007 0,-5.0581 -1.2665,-10.7481 -5.2174,-14.0671 -3.2811,-2.7654 -7.6798,-3.6349 -11.7077,-3.5553 h -5.7397 V 435.551 h 18.9372 z m 46.5633,59.2674 V 426.858 h -10.812 l -8.1277,21.5733 c -2.6831,6.8755 -4.9197,13.9077 -7.4553,23.5487 h -0.1488 c 0.3721,-5.3728 0.7442,-11.1425 1.0432,-16.8312 0.2977,-5.69 0.5223,-11.38 0.5223,-16.6744 V 426.858 H 493.74 v 59.2674 h 10.8852 l 8.1277,-21.0993 c 2.7588,-7.0336 4.9954,-14.2238 7.4565,-23.5487 h 0.1489 c -0.3734,4.8988 -0.82,10.9048 -1.119,16.9108 -0.2977,5.9263 -0.5222,11.8539 -0.5222,16.5948 v 11.1424 z m 18.8249,-26.6314 h 5.2187 c 5.2944,0 8.2021,3.8726 8.2021,10.1945 0,4.4249 -1.9389,9.2453 -7.1576,9.2453 -6.8599,0 -7.0845,-6.2423 -7.1576,-11.3003 h -10.3642 c 0,0.3159 0.0744,3.7145 0.1488,4.0305 0.8944,12.0903 8.4998,15.8049 17.373,15.8049 8.3509,0 17.5205,-3.8726 17.5205,-17.6224 0,-6.7959 -2.6087,-13.1178 -9.4686,-15.2513 v -0.2376 c 6.4865,-2.4494 8.2765,-8.2177 8.2765,-13.2758 0,-10.1932 -6.9343,-15.6456 -16.6274,-15.6456 -9.9908,0 -16.0308,5.9263 -16.5517,14.3021 0,0.3172 -0.0757,3.4769 -0.0757,3.7145 h 10.1422 c 0,-3.7929 0.5954,-9.4829 6.4852,-9.4829 4.5489,0 6.5609,3.5566 6.5609,7.7451 0,6.0843 -2.9064,9.0873 -7.5297,9.0873 h -4.9954 z m 41.2689,26.6314 v -27.1053 h 14.6142 v 27.1053 h 10.4373 V 426.858 H 603.865 v 23.4704 H 589.2508 V 426.858 h -10.4386 v 59.2674 z m 63.2627,0 v -8.6931 h -18.9372 v -18.2542 h 17.4474 v -8.6917 H 633.5763 V 435.551 h 18.9372 v -8.693 h -29.3758 v 59.2674 z m 29.8615,-21.0993 c -0.2233,3.7929 0.4478,13.5918 -5.2944,13.5918 -7.1576,0 -7.531,-7.9815 -7.531,-12.8803 v -16.4368 c 0,-4.5841 -0.6698,-14.9353 7.531,-14.9353 5.1442,0 4.7721,7.1119 5.2199,10.9048 h 10.2886 c 0.0757,-1.5015 -0.0732,-3.003 -0.2233,-4.5045 -0.7455,-10.1149 -5.9642,-15.1716 -15.2852,-15.3296 -16.7006,0 -17.8195,11.2207 -18.2661,26.314 v 8.4554 c 0,15.8049 1.1177,27.3416 18.2661,27.3416 11.632,0 15.0619,-8.2974 15.5842,-19.1225 0.0731,-1.1072 0.1488,-2.2927 0.2233,-3.3986 z m 23.3737,21.0993 2.7588,-15.015 h 12.2287 l 2.7576,15.015 h 11.1855 L 722.004,426.858 h -14.0918 l -13.3464,59.2674 z m 7.531,-40.5391 c 0.5222,-2.7654 0.7455,-5.4524 1.0445,-8.2178 0.0731,-1.3435 0.2233,-2.687 0.3721,-3.9522 h 0.1489 c 0.1488,1.2652 0.2976,2.6087 0.3734,3.9522 0.2977,2.7654 0.5222,5.4524 1.0432,8.2178 l 2.8332,16.8324 h -8.9476 z m 27.1758,35.6403 11.8553,-11.2221 v -8.0598 l -11.8553,-11.1424 v 8.8497 l 7.1588,5.9277 -7.1588,6.7162 z m 14.0174,0 11.7065,-11.2221 v -8.0598 l -11.7065,-11.1424 v 8.8497 l 7.0832,5.9277 -7.0832,6.7162 z" />
  </g>
</svg>
